<svg width="94" height="94" viewBox="0 0 94 94" fill="none" xmlns="http://www.w3.org/2000/svg">
<path d="M57.2177 18.4578H14.6124C13.8414 18.4578 13.2163 19.0829 13.2163 19.8538C13.2163 20.6247 13.8414 21.2499 14.6124 21.2499H57.2177C57.9886 21.2499 58.6137 20.6247 58.6137 19.8538C58.6137 19.0829 57.9886 18.4578 57.2177 18.4578Z" fill="black"/>
<path d="M80.5035 45.6843C79.7326 45.6843 79.1074 46.3095 79.1074 47.0804V78.047C79.1074 80.0861 77.4483 81.7453 75.4091 81.7453H6.49041C4.45123 81.7453 2.79228 80.0863 2.79228 78.047V24.948C2.79228 22.9086 4.45141 21.2499 6.49041 21.2499H9.95849C10.7294 21.2499 11.3545 20.6247 11.3545 19.8538C11.3545 19.0829 10.7294 18.4578 9.95849 18.4578H6.49041C2.91161 18.4578 0 21.3694 0 24.9482V78.0472C0 81.6259 2.91161 84.5376 6.49041 84.5376H75.4093C78.9883 84.5376 81.8997 81.6259 81.8997 78.0472V47.0804C81.8995 46.3095 81.2746 45.6843 80.5035 45.6843Z" fill="black"/>
<path d="M74.9191 69.5552C74.1482 69.5552 73.523 70.1804 73.523 70.9513V76.1609H8.37608V27.3011H56.0484C56.8193 27.3011 57.4444 26.676 57.4444 25.9051C57.4444 25.1342 56.8193 24.509 56.0484 24.509H6.98003C6.20912 24.509 5.58398 25.1342 5.58398 25.9051V77.557C5.58398 78.3279 6.20912 78.953 6.98003 78.953H74.9191C75.69 78.953 76.3151 78.3279 76.3151 77.557V70.9513C76.3151 70.1802 75.6902 69.5552 74.9191 69.5552Z" fill="black"/>
<path d="M74.9195 45.9597C74.1486 45.9597 73.5234 46.5849 73.5234 47.3558V66.2973C73.5234 67.0684 74.1486 67.6934 74.9195 67.6934C75.6904 67.6934 76.3155 67.0682 76.3155 66.2973V47.3558C76.3155 46.5849 75.6906 45.9597 74.9195 45.9597Z" fill="black"/>
<path d="M52.453 43.1227C51.7594 43.1227 51.139 42.709 50.8722 42.0688L50.5572 41.3126C49.8845 39.6985 48.3197 38.6553 46.571 38.6553H35.3279C33.5792 38.6553 32.0144 39.6985 31.3415 41.3128L31.0267 42.0688C30.7599 42.709 30.1394 43.1227 29.4459 43.1227C27.0649 43.1227 25.1274 45.0598 25.1274 47.4412V61.1413C25.1274 63.5223 27.0645 65.4598 29.4459 65.4598H52.453C54.834 65.4598 56.7715 63.5227 56.7715 61.1413V47.4412C56.7713 45.0598 54.8342 43.1227 52.453 43.1227ZM54.1655 61.1409H54.1654C54.1654 62.0851 53.3972 62.8535 52.4528 62.8535H29.4461C28.5019 62.8535 27.7336 62.0853 27.7336 61.1409V47.4408C27.7336 46.4966 28.5017 45.7282 29.4461 45.7282C31.1948 45.7282 32.7596 44.685 33.4325 43.0707L33.7474 42.3147C34.0141 41.6745 34.6347 41.2607 35.3281 41.2607H46.5712C47.2648 41.2607 47.8852 41.6743 48.1519 42.3145L48.467 43.0707C49.1395 44.6849 50.7043 45.728 52.4532 45.728C53.3974 45.728 54.1657 46.4962 54.1657 47.4406V61.1409H54.1655Z" fill="black"/>
<path d="M40.9497 45.8831C37.0322 45.8831 33.8452 49.0701 33.8452 52.9876C33.8452 56.9051 37.0322 60.0921 40.9497 60.0921C44.8673 60.0921 48.0543 56.9051 48.0543 52.9876C48.0543 49.0702 44.8673 45.8831 40.9497 45.8831ZM40.9497 57.4864C38.469 57.4864 36.4511 55.4683 36.4511 52.9878C36.4511 50.5072 38.4692 48.4892 40.9497 48.4892C43.4303 48.4892 45.4483 50.5072 45.4483 52.9878C45.4483 55.4683 43.4303 57.4864 40.9497 57.4864Z" fill="black"/>
<path d="M76.6897 9.46289C67.1449 9.46289 59.3794 17.2284 59.3794 26.7732C59.3794 36.3181 67.1449 44.0835 76.6897 44.0835C86.2345 44.0835 94 36.3181 94 26.7732C94 17.2284 86.2345 9.46289 76.6897 9.46289ZM76.6897 41.2911C68.6845 41.2911 62.1715 34.7783 62.1715 26.7728C62.1715 18.7674 68.6843 12.2546 76.6897 12.2546C84.6949 12.2546 91.2079 18.7674 91.2079 26.7728C91.2079 34.7783 84.6951 41.2911 76.6897 41.2911Z" fill="black"/>
<path d="M85.0658 25.3771H78.086V18.3973C78.086 17.6264 77.4608 17.0012 76.6899 17.0012C75.919 17.0012 75.2939 17.6264 75.2939 18.3973V25.3771H68.314C67.5431 25.3771 66.918 26.0023 66.918 26.7732C66.918 27.5441 67.5431 28.1692 68.314 28.1692H75.2939V35.1491C75.2939 35.92 75.919 36.5451 76.6899 36.5451C77.4608 36.5451 78.086 35.92 78.086 35.1491V28.1692H85.0658C85.8368 28.1692 86.4619 27.5441 86.4619 26.7732C86.4619 26.0021 85.8369 25.3771 85.0658 25.3771Z" fill="black"/>
</svg>
